<svg width="23" height="28" viewBox="0 0 23 28" fill="none" xmlns="http://www.w3.org/2000/svg">
<path d="M11.5495 12.0777C14.5194 12.0777 16.9271 9.67395 16.9271 6.70877C16.9271 3.7436 14.5194 1.33984 11.5495 1.33984C8.5795 1.33984 6.17188 3.7436 6.17188 6.70877C6.17188 9.67395 8.5795 12.0777 11.5495 12.0777Z" stroke="#6F6E7C" stroke-width="1.98" stroke-miterlimit="10"/>
<path d="M2.65927 26.0591C2.25369 25.9188 1.90863 25.6438 1.68173 25.28C1.45484 24.9163 1.35987 24.4858 1.41269 24.0605C1.68304 21.5661 2.86697 19.2594 4.73707 17.5834C6.60718 15.9075 9.03157 14.9805 11.5446 14.9805C14.0576 14.9805 16.482 15.9075 18.3521 17.5834C20.2222 19.2594 21.4061 21.5661 21.6765 24.0605C21.7233 24.4803 21.6265 24.9036 21.4018 25.2615C21.1772 25.6194 20.8378 25.8909 20.439 26.0318C19.156 26.4679 16.6082 26.9403 11.5491 26.9403C6.49 26.9403 3.94225 26.4951 2.65927 26.0591Z" stroke="#6F6E7C" stroke-width="1.8" stroke-miterlimit="10"/>
</svg>
